<?xml version="1.0" encoding="UTF-8" standalone="no"?>
<svg
   id="hg-readme-banner-v2"
   viewBox="0 0 800 200"
   width="800"
   height="200"
   version="1.1"
   sodipodi:docname="project.svg"
   xml:space="preserve"
   inkscape:version="1.4.1 (93de688d07, 2025-03-30)"
   xmlns:inkscape="http://www.inkscape.org/namespaces/inkscape"
   xmlns:sodipodi="http://sodipodi.sourceforge.net/DTD/sodipodi-0.dtd"
   xmlns:xlink="http://www.w3.org/1999/xlink"
   xmlns="http://www.w3.org/2000/svg"
   xmlns:svg="http://www.w3.org/2000/svg"><sodipodi:namedview
     id="namedview4"
     pagecolor="#ffffff"
     bordercolor="#999999"
     borderopacity="1"
     inkscape:showpageshadow="0"
     inkscape:pageopacity="0"
     inkscape:pagecheckerboard="0"
     inkscape:deskcolor="#d1d1d1"
     inkscape:zoom="1.116875"
     inkscape:cx="395.74706"
     inkscape:cy="80.581981"
     inkscape:window-width="1916"
     inkscape:window-height="1031"
     inkscape:window-x="1920"
     inkscape:window-y="27"
     inkscape:window-maximized="1"
     inkscape:current-layer="hg-readme-banner-v2" /><defs
     id="defs2"><linearGradient
       id="a"
       x1="112.46"
       y1="309.13"
       x2="314.5"
       y2="309.13"
       gradientUnits="userSpaceOnUse"
       gradientTransform="translate(-33.985 -122.816)"><stop
         offset="0"
         stop-color="#1992f4"
         id="stop1" /><stop
         offset="1"
         stop-color="#2b8af6"
         id="stop2" /></linearGradient><style
       id="style1">.cls-1{fill:#fff;}.cls-2{fill:url(#linear-gradient);}.cls-3{fill:url(#linear-gradient-2);}.cls-4{fill:url(#linear-gradient-3);}.cls-5{fill:url(#linear-gradient-4);}.cls-6{fill:url(#linear-gradient-5);}</style><linearGradient
       id="linear-gradient"
       x1="19.74"
       y1="19.73"
       x2="114.03"
       y2="114.02"
       gradientUnits="userSpaceOnUse"><stop
         offset="0"
         stop-color="#91d443"
         id="stop1-6" /><stop
         offset="1"
         stop-color="#48bfe0"
         id="stop2-7" /></linearGradient><linearGradient
       id="linear-gradient-2"
       x1="43.189999"
       y1="-3.72"
       x2="137.48"
       y2="90.57"
       xlink:href="#linear-gradient"
       gradientTransform="matrix(1.0733919,0,0,1.0733919,128.46704,-157.22771)" /><linearGradient
       id="linear-gradient-3"
       x1="66.559998"
       y1="-27.09"
       x2="160.85001"
       y2="67.199997"
       xlink:href="#linear-gradient"
       gradientTransform="matrix(1.0733919,0,0,1.0733919,128.46704,-157.22771)" /><linearGradient
       id="linear-gradient-4"
       x1="-3.72"
       y1="43.18"
       x2="90.57"
       y2="137.47"
       xlink:href="#linear-gradient"
       gradientTransform="matrix(1.0733919,0,0,1.0733919,128.46704,-157.22771)" /><linearGradient
       id="linear-gradient-5"
       x1="-27.09"
       y1="66.550003"
       x2="67.199997"
       y2="160.84"
       xlink:href="#linear-gradient"
       gradientTransform="matrix(1.0733919,0,0,1.0733919,128.46704,-157.22771)" /><linearGradient
       inkscape:collect="always"
       xlink:href="#linear-gradient"
       id="linearGradient14"
       gradientUnits="userSpaceOnUse"
       x1="19.74"
       y1="19.73"
       x2="114.03"
       y2="114.02"
       gradientTransform="matrix(1.0733919,0,0,1.0733919,128.46704,-157.22771)" /></defs><style
     id="style2">.st3{font-family:'OpenSans-Bold'}.st4{font-size:29.5168px}.st5{fill-rule:evenodd;clip-rule:evenodd;fill:none}.st7{font-family:'OpenSans'}.st8{font-size:12px}@media (prefers-color-scheme:dark){text{fill:#f0f6fc!important}}</style><text
     y="107.939"
     x="192.432"
     style="font-family:'Open Sans', sans-serif;-inkscape-font-specification:'OpenSans-Bold, Bold';font-variant-ligatures:normal;font-variant-caps:normal;font-variant-numeric:normal;font-feature-settings:normal;text-align:start"
     class="st3 st4"
     font-weight="700"
     font-size="29.517"
     font-family="'Open Sans',sans-serif"
     fill="#3f3e4b"
     id="text2">hausgold/debezium-connect</text><path
     class="st5"
     clip-rule="evenodd"
     fill="none"
     fill-rule="evenodd"
     d="M194.24 119.6h314.5v24h-314.5z"
     id="path2" /><text
     y="128.757"
     x="194.217"
     style="font-family:'Open Sans', sans-serif;-inkscape-font-specification:'Open Sans, sans-serif, Normal';font-variant-ligatures:normal;font-variant-caps:normal;font-variant-numeric:normal;font-feature-settings:normal;text-align:start"
     class="st7 st8"
     font-weight="400"
     font-size="12"
     font-family="'Open Sans',sans-serif"
     opacity=".75"
     fill="#3f3e4b"
     id="text3">mDNS enabled quay.io/debezium/connect image</text><g
     id="g14"
     transform="matrix(0.93162617,0,0,0.93162617,40.841746,39.002448)"
     style="stroke-width:1.07339"><path
       class="cls-2"
       d="m 93.79,114.29 a 16.65,16.65 0 0 0 16.63,16.63 h 20.53 V 110.39 A 16.65,16.65 0 0 0 114.32,93.76 h -3.91 A 26.39,26.39 0 0 1 84,67.4 V 63.51 A 16.65,16.65 0 0 0 67.41,46.89 h -3.9 A 26.39,26.39 0 0 1 37.16,20.52 v 0 -3.9 A 16.65,16.65 0 0 0 20.53,0 H 0 v 20.52 a 16.65,16.65 0 0 0 16.63,16.63 h 3.91 A 26.39,26.39 0 0 1 46.9,63.51 V 67.4 A 16.65,16.65 0 0 0 63.53,84 h 3.9 a 26.39,26.39 0 0 1 26.36,26.36 v 0 z"
       id="path10"
       style="fill:url(#linearGradient14);stroke-width:1.07339" /><path
       class="cls-3"
       d="M 130.94,63.51 A 16.65,16.65 0 0 0 114.31,46.88 H 110.4 A 26.39,26.39 0 0 1 84,20.52 v -3.9 A 16.65,16.65 0 0 0 67.41,0 H 46.9 v 20.75 a 16.64,16.64 0 0 0 16.62,16.4 h 3.91 a 26.39,26.39 0 0 1 26.36,26.36 v 0 3.89 A 16.65,16.65 0 0 0 110.36,84 h 20.58 z"
       id="path11"
       style="fill:url(#linear-gradient-2);stroke-width:1.07339" /><path
       class="cls-4"
       d="M 130.94,16.49 A 16.63,16.63 0 0 0 115,0 H 93.47 v 20.7 a 16.64,16.64 0 0 0 16.62,16.44 h 20.85 z"
       id="path12"
       style="fill:url(#linear-gradient-3);stroke-width:1.07339" /><path
       class="cls-5"
       d="m 0,67.44 a 16.65,16.65 0 0 0 16.64,16.62 h 3.91 a 26.39,26.39 0 0 1 26.36,26.36 v 3.89 a 16.65,16.65 0 0 0 16.63,16.63 H 84 V 110.19 A 16.64,16.64 0 0 0 67.43,93.8 h -3.9 A 26.39,26.39 0 0 1 37.16,67.44 v 0 -3.9 A 16.65,16.65 0 0 0 20.59,46.91 H 0 Z"
       id="path13"
       style="fill:url(#linear-gradient-4);stroke-width:1.07339" /><path
       class="cls-6"
       d="m 0,114.45 a 16.63,16.63 0 0 0 16,16.5 H 37.48 V 110.24 A 16.64,16.64 0 0 0 20.86,93.8 H 0 Z"
       id="path14"
       style="fill:url(#linear-gradient-5);stroke-width:1.07339" /></g></svg>
